<?xml version="1.0" encoding="UTF-8" standalone="no"?>
<!-- Created with Inkscape (http://www.inkscape.org/) -->

<svg
   width="210mm"
   height="297mm"
   viewBox="0 0 210 297"
   version="1.1"
   id="svg1"
   sodipodi:docname="logo.svg"
   inkscape:version="1.4 (86a8ad7, 2024-10-11)"
   xmlns:inkscape="http://www.inkscape.org/namespaces/inkscape"
   xmlns:sodipodi="http://sodipodi.sourceforge.net/DTD/sodipodi-0.dtd"
   xmlns="http://www.w3.org/2000/svg"
   xmlns:svg="http://www.w3.org/2000/svg">
  <sodipodi:namedview
     id="namedview1"
     pagecolor="#ffffff"
     bordercolor="#000000"
     borderopacity="0.25"
     inkscape:showpageshadow="2"
     inkscape:pageopacity="0.0"
     inkscape:pagecheckerboard="0"
     inkscape:deskcolor="#d1d1d1"
     inkscape:document-units="mm"
     inkscape:zoom="1.3950758"
     inkscape:cx="408.57996"
     inkscape:cy="122.93239"
     inkscape:window-width="1920"
     inkscape:window-height="1001"
     inkscape:window-x="-9"
     inkscape:window-y="-9"
     inkscape:window-maximized="1"
     inkscape:current-layer="svg1" />
  <defs
     id="defs1" />
  <g
     id="g2">
    <rect
       style="fill:#6666ff;fill-opacity:0.90114069;stroke:none;stroke-width:0.3;stroke-linecap:round"
       id="rect1"
       width="52.916668"
       height="52.916668"
       x="10.028139"
       y="10.168045"
       ry="7.8157096" />
    <text
       xml:space="preserve"
       style="font-style:normal;font-weight:normal;font-size:49.3889px;line-height:1.25;font-family:sans-serif;fill:#ffffff;fill-opacity:1;stroke:none;stroke-width:0.264583"
       x="24.121607"
       y="53.235161"
       id="text1"><tspan
         id="tspan1"
         style="font-style:normal;font-variant:normal;font-weight:normal;font-stretch:normal;font-size:49.3889px;font-family:Cookie;-inkscape-font-specification:Cookie;font-variant-ligatures:normal;font-variant-caps:normal;font-variant-numeric:normal;font-variant-east-asian:normal;fill:#ffffff;fill-opacity:1;stroke-width:0.264583"
         x="24.121607"
         y="53.235161">V</tspan></text>
  </g>
  <g
     id="g3"
     inkscape:export-filename="logo.png"
     inkscape:export-xdpi="96"
     inkscape:export-ydpi="96">
    <rect
       style="fill:#6666ff;fill-opacity:0.89923954;stroke:none;stroke-width:0.3;stroke-linecap:round"
       id="rect2"
       width="52.916668"
       height="52.916668"
       x="72.469833"
       y="10.168045"
       ry="7.8157096" />
    <path
       d="m 114.28593,52.022321 c -4.44041,4.401868 -17.755731,-6.047922 -17.755731,-6.047922 -1.228993,1.746467 -2.883824,2.754455 -4.9645,3.023961 -2.080657,0.269524 -3.929535,-0.404263 -5.546633,-2.021361 -0.970258,-0.97026 -1.622487,-2.215424 -1.956685,-3.735496 -0.334203,-1.520072 -0.09163,-3.013191 0.727693,-4.479358 -1.789589,-2.479547 -2.549625,-5.147758 -2.280106,-8.004631 0.269516,-2.856871 1.385318,-5.266351 3.347406,-7.228439 1.962074,-1.962073 4.366161,-3.072483 7.212242,-3.331209 2.846093,-0.258741 5.519696,0.495904 8.020814,2.263926 1.46618,-0.819336 2.9593,-1.061905 4.47937,-0.727698 1.52005,0.334209 2.76522,0.986441 3.73547,1.956701 1.61711,1.617097 2.26933,3.487533 1.95668,5.611313 -0.31263,2.123803 -1.27748,3.7355 -2.89457,4.835114 0,0 10.37825,13.4641 5.91855,17.885099 z M 94.41786,42.99847 c 0.911377,-0.858651 8.9516,-8.106906 11.79863,-10.721005 0.72445,-0.650895 0.90249,-0.649916 1.26902,-1.016449 0.73308,-0.733078 1.06512,-1.586952 1.04357,-2.751287 -0.0216,-1.1643 -0.40968,-2.123774 -1.16431,-2.878418 -0.66841,-0.6684 -1.4554,-1.045726 -2.36095,-1.131981 -0.90559,-0.08624 -1.80038,0.18329 -2.68441,0.808572 l -1.29366,0.970233 -1.326151,-1.196527 c -1.940514,-1.46617 -3.988837,-2.188472 -6.144965,-2.166911 -2.156137,0.02157 -4.075095,0.873243 -5.756872,2.555019 -1.681788,1.681787 -2.53885,3.606135 -2.571187,5.77304 -0.03235,2.166914 0.695348,4.209847 2.183079,6.128798 l 1.164279,1.358393 -0.873237,1.390704 c -0.474348,0.819329 -0.716912,1.67639 -0.727693,2.571184 -0.01075,0.894793 0.786458,2.2328 1.579103,2.74781 0.778355,0.505725 1.861642,0.626066 2.854725,0.310859 0.993083,-0.315208 2.099652,-1.893383 3.011029,-2.752034 z m 17.25325,6.409029 c 3.06392,-3.030171 -4.69031,-13.101962 -5.54262,-13.10132 -0.85231,6.42e-4 -0.87335,0.831489 -3.60195,3.631101 -1.28962,1.323177 -4.245872,2.514637 -4.30704,3.380377 -0.05359,0.758499 10.39249,9.115257 13.45161,6.089837 z"
       id="path1-8"
       style="fill:#ffffff;stroke-width:0.0457386"
       sodipodi:nodetypes="sccsscssscssscszcsssscccssscccsszzszszss" />
  </g>
  <path
     d="m 34.784022,118.8879 c -5.641553,-0.0246 -7.469818,-15.18721 -7.469818,-15.18721 -1.898404,0.33016 -3.597337,-0.0825 -5.096801,-1.2381 -1.499463,-1.15554 -2.249195,-2.765054 -2.249195,-4.828538 0,-1.238089 0.378306,-2.448665 1.134917,-3.631727 0.75661,-1.183064 1.864011,-1.980944 3.322205,-2.393639 0.440207,-2.723796 1.657661,-4.911086 3.652363,-6.56187 1.994698,-1.650785 4.2439,-2.476178 6.747604,-2.476178 2.503686,0 4.746006,0.825393 6.726936,2.476178 1.98095,1.650784 3.20528,3.838074 3.67301,6.56187 1.4582,0.412695 2.56561,1.210575 3.32221,2.393639 0.7566,1.183062 1.1349,2.393638 1.1349,3.631727 0,2.063484 -0.77724,3.672998 -2.33173,4.828538 -1.5545,1.15556 -3.19839,1.56826 -4.9317,1.2381 0,0 -1.96884,15.2119 -7.634901,15.18721 z m -8.790436,-17.53957 c 0.495225,0 0.962945,-0.0688 1.403162,-0.20652 0.440196,-0.13747 0.78411,-0.33006 1.031742,-0.57778 l 1.073016,-1.114285 0.949214,0.825415 c 0.687829,0.46771 1.437561,0.76347 2.249196,0.88727 0.811636,0.12375 1.561367,0.18562 2.249193,0.18562 0.687834,0 1.389414,-0.0619 2.104734,-0.18562 0.71535,-0.12374 1.41693,-0.4195 2.10476,-0.88727 l 0.99046,-0.825415 1.03175,1.114285 c 0.24762,0.24762 0.5984,0.44021 1.05237,0.57778 0.45398,0.13768 0.91483,0.20652 1.38254,0.20652 0.93544,0 1.76771,-0.37831 2.49682,-1.13494 0.72909,-0.756605 1.09364,-1.616384 1.09364,-2.579338 0,-0.852907 -0.26137,-1.595761 -0.78411,-2.228563 -0.52275,-0.632798 -1.26562,-1.031737 -2.22858,-1.196815 l -1.44442,-0.206361 -0.0827,-1.609517 c -0.30264,-2.173532 -1.14867,-3.941248 -2.53808,-5.303146 -1.38942,-1.361898 -3.15714,-2.042847 -5.303154,-2.042847 -2.14603,0 -3.920626,0.680949 -5.323787,2.042847 -1.403173,1.361898 -2.242322,3.129614 -2.51745,5.303146 l -0.123847,1.609517 -1.444441,0.330155 c -0.825392,0.220104 -1.526976,0.612165 -2.104751,1.176184 -0.577775,0.564018 -0.866662,1.27248 -0.866662,2.125388 0,0.962961 0.364549,1.822745 1.093646,2.57935 0.729097,0.75663 1.547614,1.13494 2.455553,1.13494 z m 8.790436,14.20295 c 3.888151,0.0215 5.282501,-12.67597 5.282501,-12.67597 l -0.24769,-0.2477 c -0.77037,0.4127 -1.60265,0.71535 -2.49683,0.90793 -0.89416,0.19258 -1.685154,0.28887 -2.372986,0.28887 -0.880432,0 -1.77461,-0.0963 -2.682537,-0.28887 -0.907927,-0.19258 -1.761316,-1.213 -2.128533,-0.84675 l -0.268091,0.26739 c 0,0 1.032107,12.5736 4.914166,12.5951 z"
     id="path3"
     style="fill:#1a1a1a;stroke-width:0.0412698"
     sodipodi:nodetypes="sccsscssscssscsscccccssccccsssscccssscccssssssccsssscs" />
</svg>
